<?xml version="1.0" standalone="no"?>
<!DOCTYPE svg PUBLIC "-//W3C//DTD SVG 20010904//EN"
 "http://www.w3.org/TR/2001/REC-SVG-20010904/DTD/svg10.dtd">
<svg version="1.0" xmlns="http://www.w3.org/2000/svg"
 width="700.000000pt" height="700.000000pt" viewBox="0 0 700.000000 700.000000"
 preserveAspectRatio="xMidYMid meet">
<metadata>
Created by potrace 1.14, written by Peter Selinger 2001-2017
</metadata>
<g transform="translate(0.000000,700.000000) scale(0.100000,-0.100000)"
fill="#000000" stroke="none">
<path d="M790 5425 l0 -245 50 0 c28 0 61 7 74 15 20 13 153 15 1109 13 875
-2 1089 -6 1099 -16 10 -10 14 -131 16 -580 2 -506 4 -568 19 -584 15 -16 39
-18 283 -18 208 0 270 3 278 13 8 9 12 191 14 578 2 310 7 572 11 581 5 10 23
20 40 23 18 3 525 4 1127 3 1028 -3 1098 -4 1139 -21 100 -41 114 -8 109 265
-4 226 -2 224 -108 214 -36 -4 -929 -8 -1985 -11 -1056 -2 -2175 -7 -2487 -10
-490 -5 -576 -4 -627 10 -32 8 -82 15 -110 15 l-51 0 0 -245z"/>
<path d="M1299 3481 c-22 -17 -24 -29 -27 -113 l-4 -95 32 -26 32 -27 888 0
c971 0 911 -4 926 56 10 40 -1 191 -15 208 -12 14 -107 16 -911 16 -869 0
-899 -1 -921 -19z"/>
<path d="M3783 3493 c-36 -7 -45 -29 -50 -115 -5 -98 7 -128 57 -145 26 -9
270 -12 957 -12 l922 -1 21 27 c19 25 21 38 18 124 -2 62 -8 102 -17 112 -12
16 -91 17 -950 16 -515 -1 -946 -4 -958 -6z"/>
<path d="M3157 2932 c-15 -17 -17 -70 -17 -560 0 -384 -3 -548 -11 -566 -9
-19 -24 -28 -63 -36 -79 -17 -2101 -10 -2141 8 -42 19 -74 7 -91 -33 -19 -46
-20 -403 -1 -426 32 -39 41 -40 131 -19 86 20 114 20 2536 20 2415 0 2450 0
2535 -20 78 -18 89 -19 115 -5 16 8 36 15 45 15 13 0 15 27 15 213 0 195 -1
213 -18 222 -73 39 -72 39 -105 26 -18 -7 -48 -17 -67 -22 -39 -10 -2188 -10
-2235 0 -53 11 -54 23 -54 622 -1 516 -2 547 -19 562 -16 15 -51 17 -279 17
-239 0 -261 -1 -276 -18z"/>
</g>
</svg>
